<svg width="512" height="512" viewBox="0 0 512 512" fill="none" xmlns="http://www.w3.org/2000/svg">
<rect width="512" height="512" fill="url(#paint0_linear_119_2)"/>
<path d="M344 155.385H319.741V305.937H280.878V252.045C272.131 261.603 259.919 266.383 244.242 266.383C226.584 266.383 212.97 260.532 203.398 248.831C193.827 236.965 189.041 221.555 189.041 202.602V155.385H168V123H344V155.385ZM280.878 155.385H227.904V202.602C227.904 212.161 230.05 219.742 234.34 225.346C238.796 230.949 245.48 233.751 254.391 233.751C262.807 233.751 269.326 231.032 273.947 225.593C278.567 220.154 280.878 213.232 280.878 204.827V155.385Z" fill="url(#paint1_linear_119_2)"/>
<path d="M332.801 385.045C324.384 387.682 315.473 389 306.067 389C291.049 389 278.177 385.127 267.451 377.381C256.724 369.8 251.361 358.016 251.361 342.03C251.361 328.186 256.146 317.061 265.718 308.656C275.289 300.251 288.491 296.048 305.324 296.048C311.595 296.048 316.381 296.213 319.681 296.543V322.5H308.542C302.271 322.5 297.485 324.148 294.185 327.444C290.719 330.905 288.986 335.273 288.986 340.546C288.986 346.644 291.132 351.094 295.422 353.896C299.713 356.698 305.324 358.099 312.255 358.099C318.691 358.099 325.54 357.027 332.801 354.885V385.045Z" fill="url(#paint2_linear_119_2)"/>
<defs>
<linearGradient id="paint0_linear_119_2" x1="256" y1="0" x2="256" y2="512" gradientUnits="userSpaceOnUse">
<stop offset="0.455" stopColor="#050F05"/>
<stop offset="1.0001" stopColor="#0D260D"/>
</linearGradient>
<linearGradient id="paint1_linear_119_2" x1="256.096" y1="34.0037" x2="256.096" y2="404.821" gradientUnits="userSpaceOnUse">
<stop offset="0.455" stopColor="#40BF40"/>
<stop offset="0.815" stopColor="#ECF9EC"/>
</linearGradient>
<linearGradient id="paint2_linear_119_2" x1="256.096" y1="34.0037" x2="256.096" y2="404.821" gradientUnits="userSpaceOnUse">
<stop offset="0.455" stopColor="#40BF40"/>
<stop offset="0.815" stopColor="#ECF9EC"/>
</linearGradient>
</defs>
</svg>
